/* XPM */
static char * qtidydebugger_xpm[] = {
"48 48 574 2",
"  	c None",
". 	c #0E0E0E",
"+ 	c #282828",
"@ 	c #1C1C1C",
"# 	c #0D0D0D",
"$ 	c #1B1B1B",
"% 	c #539600",
"& 	c #1D1D1D",
"* 	c #3A3A3A",
"= 	c #569500",
"- 	c #609E00",
"; 	c #313131",
"> 	c #5F9400",
", 	c #61A621",
"' 	c #171717",
") 	c #101010",
"! 	c #162504",
"~ 	c #121212",
"{ 	c #212121",
"] 	c #3A3621",
"^ 	c #181818",
"/ 	c #2B261A",
"( 	c #41330F",
"_ 	c #000000",
": 	c #292929",
"< 	c #191919",
"[ 	c #424029",
"} 	c #907E27",
"| 	c #6D5409",
"1 	c #0C0C0C",
"2 	c #B8A015",
"3 	c #3D3518",
"4 	c #111111",
"5 	c #3B3B3B",
"6 	c #2D2D2D",
"7 	c #C3B232",
"8 	c #D8BD21",
"9 	c #99800C",
"0 	c #302B1D",
"a 	c #0B0A08",
"b 	c #060606",
"c 	c #0A0A07",
"d 	c #2D2719",
"e 	c #9D8303",
"f 	c #E8CE1F",
"g 	c #B4A42E",
"h 	c #303030",
"i 	c #2B2B2B",
"j 	c #B9A219",
"k 	c #FDE611",
"l 	c #FCE100",
"m 	c #A97E0A",
"n 	c #494949",
"o 	c #353535",
"p 	c #1E1E1E",
"q 	c #0B0B0B",
"r 	c #A07501",
"s 	c #FDE200",
"t 	c #FDE614",
"u 	c #AB9313",
"v 	c #2A2A2A",
"w 	c #252525",
"x 	c #8D7429",
"y 	c #E8B900",
"z 	c #BD9304",
"A 	c #765B11",
"B 	c #72706B",
"C 	c #B4B4B4",
"D 	c #898989",
"E 	c #141414",
"F 	c #090805",
"G 	c #543E00",
"H 	c #8B6900",
"I 	c #E1AD00",
"J 	c #6D581F",
"K 	c #312506",
"L 	c #7A5B07",
"M 	c #202020",
"N 	c #7E7E7E",
"O 	c #E5E5E5",
"P 	c #9D9D9D",
"Q 	c #050505",
"R 	c #594100",
"S 	c #2E2202",
"T 	c #151515",
"U 	c #383838",
"V 	c #6C6C6C",
"W 	c #505050",
"X 	c #1F1F1F",
"Y 	c #030303",
"Z 	c #0E100D",
"` 	c #0F0F0F",
" .	c #1A1A1A",
"..	c #070707",
"+.	c #010101",
"@.	c #040404",
"#.	c #080808",
"$.	c #0D0F0C",
"%.	c #26680B",
"&.	c #1AB00B",
"*.	c #177C11",
"=.	c #27561B",
"-.	c #2F4424",
";.	c #253B2E",
">.	c #223830",
",.	c #253530",
"'.	c #253130",
").	c #22302E",
"!.	c #1F322E",
"~.	c #1F352C",
"{.	c #253927",
"].	c #2B421F",
"^.	c #245818",
"/.	c #178310",
"(.	c #20B50A",
"_.	c #22520D",
":.	c #214B0E",
"<.	c #21B60B",
"[.	c #26BA07",
"}.	c #4BC201",
"|.	c #4FC300",
"1.	c #44C607",
"2.	c #37BE16",
"3.	c #3A9027",
"4.	c #3A552E",
"5.	c #393939",
"6.	c #373737",
"7.	c #3A5730",
"8.	c #3D9722",
"9.	c #3EC30F",
"0.	c #4EC400",
"a.	c #52C400",
"b.	c #49C201",
"c.	c #24B909",
"d.	c #29B30E",
"e.	c #2E4223",
"f.	c #2F362A",
"g.	c #2CB10E",
"h.	c #35BA08",
"i.	c #56C400",
"j.	c #50C400",
"k.	c #48C504",
"l.	c #33C914",
"m.	c #22CD22",
"n.	c #1E902F",
"o.	c #2F302F",
"p.	c #2F2F2F",
"q.	c #27752D",
"r.	c #2BCB1B",
"s.	c #3EC70C",
"t.	c #53C300",
"u.	c #59C404",
"v.	c #32B70B",
"w.	c #31AB0E",
"x.	c #2E2E2E",
"y.	c #323232",
"z.	c #389614",
"A.	c #36B50B",
"B.	c #5AC300",
"C.	c #3CC70E",
"D.	c #3DD137",
"E.	c #29CA43",
"F.	c #2A2E2B",
"G.	c #333333",
"H.	c #2B2D2B",
"I.	c #1DC127",
"J.	c #31CA16",
"K.	c #51C400",
"L.	c #5FC70A",
"M.	c #65C711",
"N.	c #2FAD10",
"O.	c #338A0C",
"P.	c #222222",
"Q.	c #1C2C16",
"R.	c #2D9E11",
"S.	c #3E6221",
"T.	c #488119",
"U.	c #53C400",
"V.	c #4BC401",
"W.	c #5CD443",
"X.	c #A1EBA5",
"Y.	c #B7F0C6",
"Z.	c #515451",
"`.	c #262626",
" +	c #272727",
".+	c #16A92E",
"++	c #29CB1D",
"@+	c #40C60A",
"#+	c #57B808",
"$+	c #62A02B",
"%+	c #5DAE1D",
"&+	c #2FA310",
"*+	c #131313",
"=+	c #34960A",
"-+	c #334F22",
";+	c #2B3027",
">+	c #53BA08",
",+	c #66D856",
"'+	c #A8EDAF",
")+	c #BBF3CB",
"!+	c #608D6B",
"~+	c #2C2C2C",
"{+	c #232323",
"]+	c #222B25",
"^+	c #0EC333",
"/+	c #24CC21",
"(+	c #3DC70D",
"_+	c #4ABA00",
":+	c #2E4918",
"<+	c #4B4F47",
"[+	c #4BAB1E",
"}+	c #36990F",
"|+	c #2C2D2A",
"1+	c #242424",
"2+	c #4DAB09",
"3+	c #45D030",
"4+	c #65DF72",
"5+	c #5CE281",
"6+	c #2DC44B",
"7+	c #24692D",
"8+	c #224322",
"9+	c #294833",
"0+	c #1D5C30",
"a+	c #0EB73E",
"b+	c #0CD134",
"c+	c #24CC20",
"d+	c #44AB00",
"e+	c #252F1E",
"f+	c #343434",
"g+	c #629C31",
"h+	c #3A9812",
"i+	c #428F15",
"j+	c #459908",
"k+	c #4CC401",
"l+	c #35C913",
"m+	c #1DCE26",
"n+	c #07D238",
"o+	c #18C035",
"p+	c #23B436",
"q+	c #227D22",
"r+	c #20B14C",
"s+	c #11D24A",
"t+	c #06D33E",
"u+	c #13D02E",
"v+	c #2ACB1C",
"w+	c #41C60A",
"x+	c #4EC100",
"y+	c #2B4C12",
"z+	c #577C34",
"A+	c #4EA81A",
"B+	c #528D23",
"C+	c #25301B",
"D+	c #53C100",
"E+	c #4EC300",
"F+	c #3DC70C",
"G+	c #28CC1E",
"H+	c #15CE2C",
"I+	c #12C12D",
"J+	c #1BB52D",
"K+	c #1D7E1D",
"L+	c #15B743",
"M+	c #06D33F",
"N+	c #0CD234",
"O+	c #1FCD25",
"P+	c #49C403",
"Q+	c #56C100",
"R+	c #2C3F1A",
"S+	c #435A2D",
"T+	c #61B520",
"U+	c #68A32E",
"V+	c #242E1A",
"W+	c #478E08",
"X+	c #57C400",
"Y+	c #41A706",
"Z+	c #34BE12",
"`+	c #27C91E",
" @	c #21BD21",
".@	c #1CB423",
"+@	c #1A7E17",
"@@	c #13BB38",
"#@	c #11D030",
"$@	c #1ECE25",
"%@	c #2AA819",
"&@	c #3AAA0C",
"*@	c #54C300",
"=@	c #40780D",
"-@	c #3D5327",
";@	c #71BF27",
">@	c #80C931",
",@	c #75BE2E",
"'@	c #5CC000",
")@	c #5CC200",
"!@	c #479606",
"~@	c #254011",
"{@	c #172212",
"]@	c #266811",
"^@	c #2FA914",
"/@	c #2CB116",
"(@	c #247C0F",
"_@	c #27B929",
":@	c #27CC1E",
"<@	c #247415",
"[@	c #233A11",
"}@	c #3E8109",
"|@	c #5CC300",
"1@	c #52A804",
"2@	c #3A6610",
"3@	c #6BB024",
"4@	c #7BC329",
"5@	c #84C834",
"6@	c #87CD3F",
"7@	c #5CBF00",
"8@	c #51A603",
"9@	c #18250F",
"0@	c #26500B",
"a@	c #3CAD09",
"b@	c #2E7A07",
"c@	c #3BB318",
"d@	c #38AB0C",
"e@	c #12180F",
"f@	c #181C14",
"g@	c #55AF03",
"h@	c #5DC100",
"i@	c #5EBE00",
"j@	c #87CC3C",
"k@	c #7EC427",
"l@	c #84C631",
"m@	c #92D04E",
"n@	c #5CBE00",
"o@	c #141810",
"p@	c #0E0F0E",
"q@	c #17260D",
"r@	c #1B2C0B",
"s@	c #46A101",
"t@	c #377800",
"u@	c #49A80B",
"v@	c #254D09",
"w@	c #34610B",
"x@	c #62BE04",
"y@	c #95CF4F",
"z@	c #79C021",
"A@	c #80C328",
"B@	c #99D156",
"C@	c #61BC00",
"D@	c #5BBB00",
"E@	c #0F100F",
"F@	c #0E110C",
"G@	c #15240B",
"H@	c #192A08",
"I@	c #489E01",
"J@	c #387700",
"K@	c #4CA20B",
"L@	c #347105",
"M@	c #356409",
"N@	c #5FBD00",
"O@	c #73C21A",
"P@	c #96CE4F",
"Q@	c #73BC1D",
"R@	c #77BC1F",
"S@	c #9ED15B",
"T@	c #65BA00",
"U@	c #61BB00",
"V@	c #254209",
"W@	c #0D120A",
"X@	c #132209",
"Y@	c #2B5505",
"Z@	c #51AA00",
"`@	c #3A7600",
" #	c #51A10B",
".#	c #3D7E04",
"+#	c #0A0A0A",
"@#	c #427F05",
"##	c #63BB00",
"$#	c #81C52D",
"%#	c #95CB4A",
"&#	c #6CB114",
"*#	c #69AF0E",
"=#	c #A3D15F",
"-#	c #68B800",
";#	c #62BC00",
">#	c #376A05",
",#	c #152308",
"'#	c #193007",
")#	c #264E06",
"!#	c #50A801",
"~#	c #52AA00",
"{#	c #3B7600",
"]#	c #53A30B",
"^#	c #56B401",
"/#	c #224105",
"(#	c #090909",
"_#	c #0E120A",
":#	c #16220A",
"<#	c #284608",
"[#	c #5FB301",
"}#	c #66B900",
"|#	c #8BC738",
"1#	c #94C742",
"2#	c #5EA006",
"3#	c #2D470A",
"4#	c #A0CD57",
"5#	c #6CB500",
"6#	c #69B700",
"7#	c #63BA00",
"8#	c #61BD00",
"9#	c #5BBC00",
"0#	c #58B801",
"a#	c #55B100",
"b#	c #52A800",
"c#	c #3C7600",
"d#	c #57A50B",
"e#	c #5DC000",
"f#	c #326204",
"g#	c #52A301",
"h#	c #427A04",
"i#	c #64BA00",
"j#	c #67B800",
"k#	c #6AB600",
"l#	c #90C53B",
"m#	c #8BC02E",
"n#	c #2D4909",
"o#	c #1D2C0C",
"p#	c #94C43D",
"q#	c #74B508",
"r#	c #6DB500",
"s#	c #6AB700",
"t#	c #60B900",
"u#	c #5CB601",
"v#	c #59AF00",
"w#	c #55A600",
"x#	c #3D7500",
"y#	c #5BAB0B",
"z#	c #60BD00",
"A#	c #62BB00",
"B#	c #64B500",
"C#	c #6AB500",
"D#	c #65A501",
"E#	c #8DC133",
"F#	c #7BB21B",
"G#	c #141514",
"H#	c #79B11B",
"I#	c #3C4725",
"J#	c #182208",
"K#	c #1D2C05",
"L#	c #5A9601",
"M#	c #64B700",
"N#	c #60B401",
"O#	c #5CAD00",
"P#	c #59A400",
"Q#	c #3F7400",
"R#	c #65B10B",
"S#	c #6BB600",
"T#	c #518502",
"U#	c #161F09",
"V#	c #0B0C0B",
"W#	c #6C8E27",
"X#	c #6AA60B",
"Y#	c #161616",
"Z#	c #539001",
"`#	c #31332D",
" $	c #0F1504",
".$	c #68AA00",
"+$	c #69B400",
"@$	c #64B101",
"#$	c #60AA00",
"$$	c #5CA200",
"%$	c #427400",
"&$	c #6FB80A",
"*$	c #6EB400",
"=$	c #5E9601",
"-$	c #090B07",
";$	c #5C7B20",
">$	c #3D5A0F",
",$	c #416501",
"'$	c #6DB100",
")$	c #68AF01",
"!$	c #64A800",
"~$	c #5F9F00",
"{$	c #4C7C07",
"]$	c #71B504",
"^$	c #6FB300",
"/$	c #70B300",
"($	c #71B200",
"_$	c #72B100",
":$	c #375202",
"<$	c #354319",
"[$	c #63A207",
"}$	c #2B3E0A",
"|$	c #141D02",
"1$	c #71AF00",
"2$	c #6CAB01",
"3$	c #264201",
"4$	c #3E6600",
"5$	c #43650A",
"6$	c #537E00",
"7$	c #375400",
"8$	c #578201",
"9$	c #76AF00",
"0$	c #75AD00",
"a$	c #263702",
"b$	c #11130E",
"c$	c #5C8E07",
"d$	c #5B9500",
"e$	c #2C4302",
"f$	c #040503",
"g$	c #141E02",
"h$	c #68A400",
"i$	c #67A401",
"j$	c #243F00",
"k$	c #213900",
"l$	c #2A3E0B",
"m$	c #192500",
"n$	c #182300",
"o$	c #5D8C00",
"p$	c #6DA400",
"q$	c #6BA100",
"r$	c #283C02",
"s$	c #050605",
"t$	c #355003",
"u$	c #5B9400",
"v$	c #639A00",
"w$	c #4D7B00",
"x$	c #568600",
"y$	c #5E9900",
"z$	c #5E9A01",
"A$	c #406A00",
"B$	c #314B0A",
"C$	c #2D4501",
"D$	c #568300",
"E$	c #649B00",
"F$	c #629800",
"G$	c #609600",
"H$	c #598C00",
"I$	c #548600",
"J$	c #649900",
"K$	c #5D9200",
"L$	c #558900",
"M$	c #558F00",
"N$	c #559001",
"O$	c #548D00",
"P$	c #528800",
"Q$	c #466D09",
"R$	c #5D9202",
"S$	c #5B9000",
"T$	c #5A8F00",
"U$	c #588D00",
"V$	c #558A00",
"W$	c #548800",
"X$	c #5F9200",
"Y$	c #548700",
"Z$	c #4E8600",
"`$	c #4C8601",
" %	c #4B8300",
".%	c #497C02",
"+%	c #3E6506",
"@%	c #548705",
"#%	c #508400",
"$%	c #4F8300",
"%%	c #4D8100",
"&%	c #518500",
"*%	c #548400",
"=%	c #437300",
"-%	c #497E04",
";%	c #467808",
">%	c #467509",
",%	c #365C02",
"'%	c #508109",
")%	c #477A00",
"!%	c #497C00",
"~%	c #4B7D00",
"{%	c #3C6D00",
"]%	c #45631F",
"^%	c #386001",
"/%	c #3B6900",
"                                                                                                ",
"                                                                                                ",
"                                                                                                ",
"                            .                                     +                             ",
"                            @                                                                   ",
"                            # $   %                             &                               ",
"                              *   =                       -     ;                               ",
"                                    >                   ,     #                                 ",
"                              ' )         !                   ~                                 ",
"                              { '       & ] ' ^ ^ / ( _       : <                               ",
"                              : ^       [ } | 1 1 2 3 4       5 :                               ",
"                              6     7 8 9 0 a b b c d e f g     h                               ",
"                              i   j k l m n o p ^ ~ q r s t u   v                               ",
"                              w x y z A B C D v $ E 1 F G H I J ^                               ",
"                              # K L ^ M N O P ; $ E 1 Q _ _ R S                                 ",
"                                Q # T & U V W X < ~ q Y _ _ _ _                                 ",
"                                Z ` 4 ' @ p &  .E . .._ +.@.#.$.                                ",
"                            ` %.&.*.=.-.;.>.,.'.).!.~.{.].^./.(._.                              ",
"                          ) :.<.[.}.|.1.2.3.4.5.6.7.8.9.0.a.b.c.d.e. .                          ",
"                        ^ f.g.h.i.j.k.l.m.n.o.p.U p.q.r.s.|.t.u.v.w.x.                          ",
"                      y.{ z.A.B.t.|.C.D.E.F.v v G.i H.I.J.k.K.L.M.N.O.@                         ",
"                  . P.w Q.R.S.T.U.V.W.X.Y.Z.`.`.p.`. +.+++@+|.#+$+%+&+  ' `.X                   ",
"              *+p #     =+-+: ;+>+k.,+'+)+!+P.P.~+{+]+^+/+(+_+:+; <+[+      p $                 ",
"            . T         }+|+w 1+2+k.3+4+5+6+7+8+9+0+a+b+c+(+d+e+ +f+g+h+        ~ q             ",
"                        i+h P.{ j+k+l+m+n+o+p+q+r+s+t+u+v+w+x+y+{+w z+A+                        ",
"                        B+p.M C+D+E+F+G+H+I+J+K+L+M+N+O+l.P+a.Q+R+P.S+T+                        ",
"                        U+f+V+W+X+K.Y+Z+`+ @.@+@@@#@$@%@&@E+*@B.=@M -@;@                        ",
"                        >@,@'@)@!@~@E {@]@^@/@(@_@:@<@E T [@}@|@1@2@3@4@                        ",
"                        5@6@7@8@E ~ 4 ) 9@0@a@b@c@d@e@4 ~ *+f@g@h@i@j@k@                        ",
"                        l@m@i@n@o@) ` p@q@r@s@t@u@v@. ` ) 4 ~ w@n@x@y@z@                        ",
"                        A@B@C@D@E@. # F@G@H@I@J@K@L@1 # . ` ) M@N@O@P@Q@                        ",
"                        R@S@T@U@V@1 q W@X@Y@Z@`@ #.#+#q 1 # . @###$#%#&#                        ",
"                        *#=#-#T@;#>#,#'#)#!#~#{#]#^#/#(#_#:#<#[#}#|#1#2#                        ",
"                        3#4#5#6#}#7#8#9#0#a#b#c#d#e#n@f#g#h#i#j#k#l#m#n#                        ",
"                      4 o#p#q#r#s#j#T@t#u#v#w#x#y#z#C@A#i#B#6#C#D#E#F#G#                        ",
"                       .  H#I#J#K#L#s#M#N#O#P#Q#R#T@}#j#6#S#T#U#V#W#X#' Y#                      ",
"                      ~+  Z#`#..b  $.$+$@$#$$$%$&$s#S#5#*$=$-$(#) ;$  Y#$                       ",
"                     .f+    >$Y#Q Y ,$'$)$!$~${$]$^$/$($_$:$b #.<$[$    p                       ",
"                       .      }$+#Y |$1$2$3$4$5$6$7$8$9$0$a$Q b$c$      M                       ",
"                      ~       d$e$f$g$h$i$j$k$l$m$n$o$p$q$r$s$t$u$       +                      ",
"                    ' )         v$w$x$y$z$d$A$B$C$D$E$F$G$H$I$J$      w ~+                      ",
"                  {+p             K$L$M$N$O$P$Q$R$S$T$U$V$W$X$          $ 6                     ",
"                @ ^                 Y$Z$`$ %.%+%@%#%$%%%&%*%                G.                  ",
"              #                       =%-%;%>%,%'%)%!%~%                      +                 ",
"              .                             {%]%^%/%                            &               ",
"                                                                                                ",
"                                                                                                ",
"                                                                                                "};
